<mxfile host="app.diagrams.net" modified="2023-11-08T00:59:56.027Z" agent="Mozilla/5.0 (Windows NT 10.0; Win64; x64) AppleWebKit/537.36 (KHTML, like Gecko) Chrome/119.0.0.0 Safari/537.36" etag="6dCgbIaA0qawp73xkgJV" version="22.0.8" type="device">
  <diagram name="Page-1" id="e7e014a7-5840-1c2e-5031-d8a46d1fe8dd">
    <mxGraphModel dx="1434" dy="782" grid="1" gridSize="10" guides="1" tooltips="1" connect="1" arrows="1" fold="1" page="1" pageScale="1" pageWidth="1169" pageHeight="826" background="none" math="0" shadow="0">
      <root>
        <mxCell id="0" />
        <mxCell id="1" parent="0" />
        <mxCell id="3" value="sistem" style="swimlane;whiteSpace=wrap" parent="1" vertex="1">
          <mxGeometry x="444.5" y="128" width="280" height="570" as="geometry" />
        </mxCell>
        <mxCell id="YnimuvPYFIyD1kAVMDsK-43" value="menampilkan pilihan data" style="rounded=0;whiteSpace=wrap;html=1;" vertex="1" parent="3">
          <mxGeometry x="80.5" y="102" width="120" height="60" as="geometry" />
        </mxCell>
        <mxCell id="YnimuvPYFIyD1kAVMDsK-62" style="edgeStyle=orthogonalEdgeStyle;rounded=0;orthogonalLoop=1;jettySize=auto;html=1;exitX=0.5;exitY=1;exitDx=0;exitDy=0;" edge="1" parent="3" source="YnimuvPYFIyD1kAVMDsK-55" target="YnimuvPYFIyD1kAVMDsK-61">
          <mxGeometry relative="1" as="geometry" />
        </mxCell>
        <mxCell id="YnimuvPYFIyD1kAVMDsK-55" value="menampilkan data" style="rounded=0;whiteSpace=wrap;html=1;" vertex="1" parent="3">
          <mxGeometry x="80.5" y="322" width="120" height="60" as="geometry" />
        </mxCell>
        <mxCell id="2" value="user/siswa" style="swimlane;whiteSpace=wrap" parent="3" vertex="1">
          <mxGeometry x="-295.5" width="295.5" height="570" as="geometry" />
        </mxCell>
        <mxCell id="YnimuvPYFIyD1kAVMDsK-42" style="edgeStyle=orthogonalEdgeStyle;rounded=0;orthogonalLoop=1;jettySize=auto;html=1;exitX=0.5;exitY=1;exitDx=0;exitDy=0;" edge="1" parent="2" source="5" target="YnimuvPYFIyD1kAVMDsK-41">
          <mxGeometry relative="1" as="geometry" />
        </mxCell>
        <mxCell id="5" value="" style="ellipse;shape=startState;fillColor=#000000;strokeColor=#ff0000;" parent="2" vertex="1">
          <mxGeometry x="125" y="40" width="30" height="30" as="geometry" />
        </mxCell>
        <mxCell id="YnimuvPYFIyD1kAVMDsK-41" value="memilih menu melihat data dan absensi" style="rounded=0;whiteSpace=wrap;html=1;" vertex="1" parent="2">
          <mxGeometry x="80" y="102" width="120" height="60" as="geometry" />
        </mxCell>
        <mxCell id="YnimuvPYFIyD1kAVMDsK-51" style="edgeStyle=orthogonalEdgeStyle;rounded=0;orthogonalLoop=1;jettySize=auto;html=1;exitX=0;exitY=0.5;exitDx=0;exitDy=0;entryX=0;entryY=0.5;entryDx=0;entryDy=0;" edge="1" parent="2" source="YnimuvPYFIyD1kAVMDsK-45" target="YnimuvPYFIyD1kAVMDsK-48">
          <mxGeometry relative="1" as="geometry" />
        </mxCell>
        <mxCell id="YnimuvPYFIyD1kAVMDsK-52" style="edgeStyle=orthogonalEdgeStyle;rounded=0;orthogonalLoop=1;jettySize=auto;html=1;exitX=0;exitY=0.5;exitDx=0;exitDy=0;entryX=0;entryY=0.5;entryDx=0;entryDy=0;" edge="1" parent="2" source="YnimuvPYFIyD1kAVMDsK-45" target="YnimuvPYFIyD1kAVMDsK-47">
          <mxGeometry relative="1" as="geometry" />
        </mxCell>
        <mxCell id="YnimuvPYFIyD1kAVMDsK-54" style="edgeStyle=orthogonalEdgeStyle;rounded=0;orthogonalLoop=1;jettySize=auto;html=1;exitX=0;exitY=0.5;exitDx=0;exitDy=0;entryX=0;entryY=0.5;entryDx=0;entryDy=0;" edge="1" parent="2" source="YnimuvPYFIyD1kAVMDsK-45" target="YnimuvPYFIyD1kAVMDsK-46">
          <mxGeometry relative="1" as="geometry" />
        </mxCell>
        <mxCell id="YnimuvPYFIyD1kAVMDsK-45" value="memilih data" style="rounded=0;whiteSpace=wrap;html=1;" vertex="1" parent="2">
          <mxGeometry x="80" y="192" width="120" height="60" as="geometry" />
        </mxCell>
        <mxCell id="YnimuvPYFIyD1kAVMDsK-48" value="Rapot/Ipk matkul" style="rounded=0;whiteSpace=wrap;html=1;" vertex="1" parent="2">
          <mxGeometry x="95.5" y="272" width="80" height="40" as="geometry" />
        </mxCell>
        <mxCell id="YnimuvPYFIyD1kAVMDsK-57" style="edgeStyle=orthogonalEdgeStyle;rounded=0;orthogonalLoop=1;jettySize=auto;html=1;exitX=1;exitY=0.5;exitDx=0;exitDy=0;" edge="1" parent="2" source="YnimuvPYFIyD1kAVMDsK-47">
          <mxGeometry relative="1" as="geometry">
            <mxPoint x="365.5" y="352" as="targetPoint" />
          </mxGeometry>
        </mxCell>
        <mxCell id="YnimuvPYFIyD1kAVMDsK-47" value="Profile" style="rounded=0;whiteSpace=wrap;html=1;" vertex="1" parent="2">
          <mxGeometry x="95.5" y="332" width="80" height="40" as="geometry" />
        </mxCell>
        <mxCell id="YnimuvPYFIyD1kAVMDsK-46" value="Absensi" style="rounded=0;whiteSpace=wrap;html=1;" vertex="1" parent="2">
          <mxGeometry x="95.5" y="392" width="80" height="40" as="geometry" />
        </mxCell>
        <mxCell id="YnimuvPYFIyD1kAVMDsK-44" style="edgeStyle=orthogonalEdgeStyle;rounded=0;orthogonalLoop=1;jettySize=auto;html=1;exitX=1;exitY=0.5;exitDx=0;exitDy=0;" edge="1" parent="3" source="YnimuvPYFIyD1kAVMDsK-41" target="YnimuvPYFIyD1kAVMDsK-43">
          <mxGeometry relative="1" as="geometry" />
        </mxCell>
        <mxCell id="YnimuvPYFIyD1kAVMDsK-50" style="edgeStyle=orthogonalEdgeStyle;rounded=0;orthogonalLoop=1;jettySize=auto;html=1;exitX=0.5;exitY=1;exitDx=0;exitDy=0;entryX=1;entryY=0.5;entryDx=0;entryDy=0;" edge="1" parent="3" source="YnimuvPYFIyD1kAVMDsK-43" target="YnimuvPYFIyD1kAVMDsK-45">
          <mxGeometry relative="1" as="geometry" />
        </mxCell>
        <mxCell id="YnimuvPYFIyD1kAVMDsK-56" style="edgeStyle=orthogonalEdgeStyle;rounded=0;orthogonalLoop=1;jettySize=auto;html=1;exitX=1;exitY=0.5;exitDx=0;exitDy=0;entryX=0;entryY=0.5;entryDx=0;entryDy=0;" edge="1" parent="3" source="YnimuvPYFIyD1kAVMDsK-48" target="YnimuvPYFIyD1kAVMDsK-55">
          <mxGeometry relative="1" as="geometry" />
        </mxCell>
        <mxCell id="YnimuvPYFIyD1kAVMDsK-59" style="edgeStyle=orthogonalEdgeStyle;rounded=0;orthogonalLoop=1;jettySize=auto;html=1;exitX=1;exitY=0.5;exitDx=0;exitDy=0;entryX=0;entryY=0.5;entryDx=0;entryDy=0;" edge="1" parent="3" source="YnimuvPYFIyD1kAVMDsK-46" target="YnimuvPYFIyD1kAVMDsK-55">
          <mxGeometry relative="1" as="geometry" />
        </mxCell>
        <mxCell id="YnimuvPYFIyD1kAVMDsK-60" style="edgeStyle=orthogonalEdgeStyle;rounded=0;orthogonalLoop=1;jettySize=auto;html=1;exitX=0.5;exitY=1;exitDx=0;exitDy=0;" edge="1" parent="3" source="YnimuvPYFIyD1kAVMDsK-55" target="YnimuvPYFIyD1kAVMDsK-55">
          <mxGeometry relative="1" as="geometry" />
        </mxCell>
        <mxCell id="YnimuvPYFIyD1kAVMDsK-61" value="" style="ellipse;html=1;shape=endState;fillColor=#000000;strokeColor=#ff0000;" vertex="1" parent="3">
          <mxGeometry x="125.5" y="482" width="30" height="30" as="geometry" />
        </mxCell>
      </root>
    </mxGraphModel>
  </diagram>
</mxfile>
